<svg xmlns="http://www.w3.org/2000/svg" fill="currentColor" viewBox="0 0 475.43 511.81">
  <path d="M414.9 299.08c-35.19.03-62.73-28.78-60.53-63.42.53-8.4 3.31-16.3 6.29-24.08 13.04-34.03 30.7-65.76 48.82-97.25 5.29-9.2 5.41-9.18 10.62-.12 18.42 32.08 36.45 64.36 49.53 99.11 5.4 14.35 8.18 28.76 3.15 43.89-8.39 25.24-31.19 41.84-57.88 41.86ZM30.83 282.34c-20.74-.23-35.96-20.65-29.2-40.24 6.89-19.97 17.26-38.19 27.63-56.43 1.51-2.66 2.68-2.49 4.09.01 10.5 18.55 21.54 36.89 27.81 57.42 6.14 20.08-9.42 39.84-30.34 39.24ZM83.91 88.03c-14.36.04-24.29-12.9-20.04-26.55 4.14-13.29 11.16-25.25 18.03-37.25 1.41-2.46 2.59-2.03 3.83.17 6.83 12.02 13.97 23.93 17.94 37.28 4.04 13.61-5.68 26.31-19.77 26.35ZM275.46 283.79c-5.23-3.42-6.79-6.99-6.78-12.9.17-69.3.21-138.61.06-207.91-.07-31.8-21.66-56.7-53-61.82-1.44-.24-3.05.09-4.21-1.16h-9c-1.17 1.25-2.78.92-4.22 1.15-12.32 1.95-23.24 6.9-32.54 15.26-15.14 13.61-21.01 30.95-20.97 50.94.13 68.76.04 137.52.07 206.28 0 3.43-.31 6.13-3.74 8.43-42.66 28.57-62.34 68.49-57.58 119.73 4.92 52.9 48.08 98.92 100.34 107.94 3.23.56 6.63.47 9.64 2.09h25.99c1.06-1.04 2.46-.87 3.76-1.04 51.75-6.98 93.4-45.01 105.03-95.93 11.48-50.23-9.47-102.65-52.85-131.04Zm-51.99 206.1c-59.12 8.43-111.02-30.33-119.57-89.29-5.87-40.51 15.27-83.57 51.67-103.07 8.03-4.3 10.21-9.01 10.17-17.65-.35-72.14-.23-144.28-.18-216.41.02-23.22 17.39-41.56 39.87-42.4 23.55-.87 42.9 17.7 43.02 41.76.18 37.15.05 74.3.05 111.46 0 37.15.08 74.3-.09 111.46-.02 4.39 1.23 6.78 5.24 8.9 31.92 16.86 50.82 43.15 56.28 78.95 8.3 54.39-31.93 108.52-86.47 116.3Z"/>
  <path d="M225.43 230.76c0 31.98.08 63.97-.09 95.95-.02 4.51 1.1 6.98 5.51 9.09 23.48 11.2 35.57 37.12 29.48 62.15-6.25 25.73-29.01 42.73-56.08 41.89-24.91-.77-46.39-19.58-51.2-44.84-4.55-23.9 7.65-48.63 29.73-58.92 4.87-2.27 5.92-4.99 5.91-9.84-.13-64.13-.1-128.26-.08-192.4 0-10.56 5.05-17.69 13.94-19.96 11.76-3.01 22.64 5.61 22.8 18.44.21 16.99.06 33.98.06 50.97v47.47Z"/>
</svg>